#!OML:ASF E:\inclinewalkrobotboard\Project 1\Capture day 1\Session 1\subject1.ASF
:FULLY-SPECIFIED
:DEGREES
162
root 8.41515 15.5209 13.5836 -161.45 20.0263 -171.884
lowerback -1.21645 6.73879 -4.88179
upperback 2.69166 9.16724 2.0359
thorax 2.37139 4.48745 5.0162
lowerneck -7.97568 -3.99673 -2.74149
upperneck 21.8664 -5.41462 7.0746
head 8.35982 -1.64626 2.37589
rclavicle 5.2181e-016 -9.0447e-015
rhumerus -10.8102 19.4118 -53.6091
rradius 46.6698
rwrist -1.39362
rhand -10.3773 -39.7623
rfingers 7.12502
rthumb 15.6202 -69.1517
lclavicle 5.2181e-016 -9.0447e-015
lhumerus -38.7857 -32.7307 44.0399
lradius 29.7523
lwrist -2.4642
lhand -36.7133 -27.2403
lfingers 7.12502
lthumb -9.79804 2.51177
rfemur 1.6935 13.3353 6.83354
rtibia 84.515
rfoot 179.014 47.825
rtoes -6.83899
lfemur -50.0286 6.21609 -14.3209
ltibia 52.2029
lfoot -18.1459 4.86197
ltoes -56.2674
163
root 8.36915 15.4895 13.4276 -162.434 18.0522 -172.667
lowerback -1.01935 6.1408 -5.00033
upperback 2.9282 8.37957 2.46509
thorax 2.52123 4.08718 5.51836
lowerneck -7.53298 -4.27574 -3.08628
upperneck 22.2932 -5.70759 7.17628
head 8.45246 -1.77084 2.45507
rclavicle -2.07233e-014 2.38542e-015
rhumerus -13.7949 18.5662 -53.4803
rradius 44.7474
rwrist -0.494164
rhand -10.1878 -37.6109
rfingers 7.12502
rthumb 15.8028 -66.9859
lclavicle -2.07233e-014 2.38542e-015
lhumerus -37.9669 -33.2369 45.3753
lradius 31.0558
lwrist -2.31203
lhand -36.6467 -27.4659
lfingers 7.12502
lthumb -9.73379 2.28912
rfemur 0.675881 14.7244 7.37141
rtibia 77.36
rfoot 215.232 13.4193
rtoes -11.9966
lfemur -48.8756 3.84624 -15.22
ltibia 51.9736
lfoot -19.1512 3.88594
ltoes -55.7017
164
root 8.31525 15.4787 13.2902 -163.388 16.0529 -173.789
lowerback -0.879294 5.41649 -5.17365
upperback 3.16206 7.42311 2.60342
thorax 2.77063 3.59453 5.7617
lowerneck -7.06204 -4.46199 -3.28174
upperneck 22.697 -5.89079 7.26972
head 8.52248 -1.8324 2.5183
rclavicle -1.35174e-014 -6.55989e-015
rhumerus -17.4477 15.6986 -54.0704
rradius 43.304
rwrist 0.355734
rhand -6.77182 -41.2493
rfingers 7.12502
rthumb 19.0903 -70.3324
lclavicle -1.35174e-014 -6.55989e-015
lhumerus -36.6474 -33.0461 46.357
lradius 32.3131
lwrist -2.264
lhand -36.361 -27.5814
lfingers 7.12502
lthumb -9.45816 2.18639
rfemur -1.1091 15.783 7.36099
rtibia 72.6082
rfoot 222.82 16.8883
rtoes -4.47786
lfemur -47.788 1.23723 -16.4678
ltibia 51.5855
lfoot -19.723 2.77851
ltoes -54.54
165
root 8.25866 15.5019 13.1711 -164.577 14.5038 -175.191
lowerback -0.459808 4.68244 -5.78871
upperback 3.48602 6.45606 2.62083
thorax 2.93865 3.08686 6.10098
lowerneck -6.46467 -4.5151 -3.40731
upperneck 22.9416 -5.86856 7.16963
head 8.49447 -1.82448 2.52337
rclavicle 3.50855e-014 2.5842e-015
rhumerus -20.4487 12.262 -54.6028
rradius 41.3531
rwrist 0.890426
rhand -8.39729 -41.4895
rfingers 7.12502
rthumb 17.5265 -70.7194
lclavicle 3.50855e-014 2.5842e-015
lhumerus -34.8733 -32.2059 47.2865
lradius 33.1798
lwrist -2.13643
lhand -36.0764 -27.8024
lfingers 7.12502
lthumb -9.18356 1.97759
rfemur -4.55633 16.1489 6.36481
rtibia 68.7707
rfoot 230.028 11.5463
rtoes -13.6002
lfemur -46.3822 -1.10557 -18.0954
ltibia 51.1335
lfoot -19.9392 1.96651
ltoes -53.7851
166
root 8.19469 15.5522 13.0742 -165.646 13.4577 -176.418
lowerback -0.0316789 4.00683 -6.21253
upperback 3.86107 5.56811 2.51398
thorax 3.19397 2.62016 6.21256
lowerneck -5.5476 -4.40956 -3.47823
upperneck 22.8365 -5.63263 7.02191
head 8.27247 -1.73931 2.52172
rclavicle 2.39536e-014 3.1408e-014
rhumerus -24.1103 7.5734 -55.2184
rradius 40.8011
rwrist 1.32748
rhand -12.2632 -39.6335
rfingers 7.12502
rthumb 13.8033 -69.1555
lclavicle 2.39536e-014 3.1408e-014
lhumerus -32.4058 -30.8824 48.0522
lradius 33.4497
lwrist -2.27187
lhand -35.739 -26.7216
lfingers 7.12502
lthumb -8.85799 3.07246
rfemur -9.51563 16.6833 5.04585
rtibia 65.1257
rfoot 227.657 6.6831
rtoes -15.154
lfemur -44.8507 -2.81749 -19.6987
ltibia 50.3483
lfoot -19.7995 1.66014
ltoes -53.7301
167
root 8.12514 15.6258 12.9979 -167.023 12.2684 -177.433
lowerback 0.848875 3.17737 -6.25345
upperback 4.47554 4.47513 2.43631
thorax 3.51198 2.06625 6.12221
lowerneck -5.39774 -4.11948 -3.34476
upperneck 23.1117 -5.10115 6.39141
head 8.28611 -1.52802 2.34137
rclavicle -1.59028e-015 2.38542e-015
rhumerus -27.3564 3.0316 -55.6682
rradius 40.4952
rwrist 1.729
rhand -12.9106 -42.9919
rfingers 7.12502
rthumb 13.1794 -72.5554
lclavicle -1.59028e-015 2.38542e-015
lhumerus -29.5008 -28.6276 48.7723
lradius 33.5406
lwrist -3.41709
lhand -36.7024 -28.6116
lfingers 7.12502
lthumb -9.7875 1.14099
rfemur -16.3195 15.4779 3.51577
rtibia 62.2989
rfoot 220.242 13.1454
rtoes -0.245928
lfemur -42.5515 -4.27487 -21.1747
ltibia 48.873
lfoot -19.2412 1.4226
ltoes -53.83
168
root 8.05623 15.7046 12.9463 -168.704 11.164 -178.269
lowerback 2.18067 2.26575 -6.17597
upperback 5.27711 3.28685 2.44147
thorax 3.78928 1.48201 6.04576
lowerneck -4.92031 -3.70018 -3.56737
upperneck 22.886 -4.37369 5.74659
head 8.07322 -1.28931 2.22774
rclavicle -1.45113e-014 1.78906e-014
rhumerus -30.2373 -1.69807 -55.5973
rradius 40.3206
rwrist 4.53223
rhand -11.2851 -43.3894
rfingers 7.12502
rthumb 14.7458 -72.8449
lclavicle -1.45113e-014 1.78906e-014
lhumerus -26.2808 -25.6879 49.6992
lradius 33.4598
lwrist -4.99055
lhand -37.7739 -28.6942
lfingers 7.12502
lthumb -10.8212 1.00703
rfemur -23.8087 13.2812 2.78805
rtibia 62.1249
rfoot 212.496 11.7675
rtoes -12.1687
lfemur -39.6982 -5.28076 -22.5723
ltibia 47.0747
lfoot -18.4534 1.14312
ltoes -53.869
169
root 7.9993 15.7666 12.9157 -170.565 10.2759 -179.27
lowerback 3.70477 1.35045 -6.56165
upperback 6.08994 2.10663 2.44377
thorax 3.96451 0.897006 6.24589
lowerneck -4.22646 -3.1235 -3.63594
upperneck 22.4744 -3.38147 4.72141
head 7.7431 -0.947564 1.98015
rclavicle -1.08338e-014 7.15625e-015
rhumerus -33.3359 -4.54893 -55.7584
rradius 40.4569
rwrist 4.58945
rhand -13.3438 -41.2527
rfingers 7.12502
rthumb 12.7617 -70.8427
lclavicle -1.08338e-014 7.15625e-015
lhumerus -22.9689 -23.2525 51.2637
lradius 33.8029
lwrist -4.96979
lhand -38.4296 -24.5344
lfingers 7.12502
lthumb -11.4536 5.13271
rfemur -31.7577 11.2772 2.29396
rtibia 64.7269
rfoot 203.849 10.7161
rtoes -16.6928
lfemur -36.74 -5.83567 -24.206
ltibia 45.3043
lfoot -17.6165 0.827132
ltoes -53.8356
170
root 7.95778 15.8103 12.9009 -172.931 9.3836 -180.802
lowerback 5.74402 0.429354 -7.7878
upperback 6.99961 0.909118 2.31388
thorax 3.99635 0.288117 6.81128
lowerneck -3.54623 -2.39316 -3.58419
upperneck 21.9895 -2.19255 3.63377
head 7.39575 -0.496888 1.70183
rclavicle -4.07509e-015 -1.35174e-014
rhumerus -36.3386 -7.10651 -55.6546
rradius 40.6069
rwrist 4.97145
rhand -11.394 -42.4775
rfingers 7.12502
rthumb 14.641 -71.9406
lclavicle -4.07509e-015 -1.35174e-014
lhumerus -19.2853 -20.1007 52.9108
lradius 34.2804
lwrist -4.64314
lhand -37.8225 -27.6409
lfingers 7.12502
lthumb -10.868 2.05789
rfemur -39.3476 9.17878 1.60756
rtibia 70.1573
rfoot 166.475 1.46819
rtoes 66.408
lfemur -33.3596 -6.11894 -26.4701
ltibia 43.5541
lfoot -16.8407 0.445175
ltoes -53.9693
171
root 7.93282 15.8337 12.9091 -175.324 8.15296 -182.532
lowerback 8.18261 -0.465957 -9.4388
upperback 7.7958 -0.31979 2.05909
thorax 3.78147 -0.331569 7.53372
lowerneck -3.17632 -1.64743 -3.42492
upperneck 21.6473 -1.04681 2.7953
head 7.16963 -0.0230843 1.47933
rclavicle 8.54774e-015 3.18055e-015
rhumerus -39.5357 -9.14839 -55.9103
rradius 40.9335
rwrist 4.29093
rhand -11.2921 -42.7809
rfingers 7.12502
rthumb 14.7391 -72.2369
lclavicle 8.54774e-015 3.18055e-015
lhumerus -15.274 -16.841 54.8084
lradius 35.4917
lwrist -4.43014
lhand -37.4012 -26.7494
lfingers 7.12502
lthumb -10.4616 2.9703
rfemur -46.2832 7.32278 1.17318
rtibia 78.4891
rfoot 184.466 -11.2927
rtoes 66.6815
lfemur -30.2677 -6.35595 -28.9133
ltibia 42.2201
lfoot -16.1332 -0.259958
ltoes -53.7345
172
root 7.9092 15.8486 12.8915 -177.607 7.02828 -183.921
lowerback 10.3512 -1.3003 -10.7709
upperback 8.5747 -1.46186 1.72536
thorax 3.75455 -0.894839 8.03118
lowerneck -2.82622 -0.896873 -3.26015
upperneck 21.3047 0.0511979 2.20613
head 6.96112 0.454608 1.32953
rclavicle -1.0138e-014 6.75868e-015
rhumerus -42.6614 -11.59 -55.8677
rradius 40.7954
rwrist 4.05688
rhand -10.9691 -42.8305
rfingers 7.12502
rthumb 15.0503 -72.2635
lclavicle -1.0138e-014 6.75868e-015
lhumerus -11.2238 -13.6422 57.0667
lradius 37.0888
lwrist -5.15825
lhand -40.1787 -31.798
lfingers 7.12502
lthumb -13.14 -2.23202
rfemur -51.3981 5.61051 0.943441
rtibia 89.593
rfoot 239.826 109.02
rtoes 60.6141
lfemur -27.0312 -6.6132 -31.086
ltibia 40.869
lfoot -15.5951 -0.858033
ltoes -52.9749
